# xmcd
#
# Track frame offsets:
# 150
# 14401
# 32493
# 50303
# 66343
# 82644
# 99143
# 113641
# 131569
# 151943
# 166709
# 181819
# 194200
# 210246
# 226572
# 248856
# 269852
# 285661
# 298784
#
# Disc length: 4207 seconds
#
# Revision: 0
# Processed by: cddbd v1.5.1PL0 Copyright (c) Steve Scherf et al.
# Submitted via: Audion 3.0.2 (http://www.panic.com/audion/)
#
DISCID=f9106d13
DTITLE=The Used - Rockish Used
DYEAR=1900
DGENRE=
TTITLE0=kym
TTITLE1=U huh
TTITLE2=Rightio 
TTITLE3=Wasssa 
TTITLE4=yup yup yup 
TTITLE5=toodles
TTITLE6=heyz
TTITLE7=yo 
TTITLE8=hip
TTITLE9=sooo 
TTITLE10=yeh
TTITLE11=yeah
TTITLE12=eat
TTITLE13=food
TTITLE14=andrew
TTITLE15=keyan
TTITLE16=nicole
TTITLE17=whitney
TTITLE18=julia
EXTD=
EXTT0=
EXTT1=
EXTT2=
EXTT3=
EXTT4=
EXTT5=
EXTT6=
EXTT7=
EXTT8=
EXTT9=
EXTT10=
EXTT11=
EXTT12=
EXTT13=
EXTT14=
EXTT15=
EXTT16=
EXTT17=
EXTT18=
PLAYORDER=
